<svg width="185" height="197" viewBox="0 0 185 197" fill="none" xmlns="http://www.w3.org/2000/svg">
<path d="M23.3418 15.7286C23.3418 7.04192 30.3837 0 39.0704 0H168.438C177.124 0 184.166 7.04191 184.166 15.7285V181.271C184.166 189.958 177.124 197 168.438 197H39.0704C30.3837 197 23.3418 189.958 23.3418 181.271V15.7286Z" fill="#E2DEE2"/>
<path d="M23.3418 15.7286C23.3418 7.04192 30.3837 0 39.0704 0H154.675C163.362 0 170.404 7.04191 170.404 15.7285V181.271C170.404 189.958 163.362 197 154.675 197H39.0704C30.3837 197 23.3418 189.958 23.3418 181.271V15.7286Z" fill="#F3F0F3"/>
<path d="M160.769 33.2268C160.769 41.8048 153.815 48.7587 145.237 48.7587C136.659 48.7587 129.705 41.8048 129.705 33.2268C129.705 24.6487 136.659 17.6949 145.237 17.6949C153.815 17.6949 160.769 24.6487 160.769 33.2268Z" fill="#0AB69F"/>
<path d="M156.331 33.2268C156.331 41.8048 150.371 48.7587 143.018 48.7587C135.665 48.7587 129.705 41.8048 129.705 33.2268C129.705 24.6487 135.665 17.6949 143.018 17.6949C150.371 17.6949 156.331 24.6487 156.331 33.2268Z" fill="#0ED2B3"/>
<path d="M143.546 38.2197C143.573 38.1008 143.593 37.9802 143.604 37.8587C143.604 35.8758 143.604 33.893 143.604 31.9343C143.538 31.8779 143.508 31.8315 143.465 31.8173C142.372 31.4623 141.866 30.8088 142.005 29.9454C142.144 29.0821 142.812 28.6 143.959 28.5899C146.559 28.5657 146.816 28.8199 146.816 31.3998V38.2117C147.177 38.2338 147.471 38.2399 147.766 38.2702C148.157 38.3019 148.523 38.4773 148.792 38.7626C149.062 39.0479 149.216 39.4229 149.226 39.8153C149.244 40.6221 148.651 41.4008 147.836 41.429C146.081 41.4855 144.32 41.4855 142.564 41.429C141.741 41.4008 141.184 40.6383 141.204 39.8153C141.204 39.4218 141.355 39.0433 141.626 38.758C141.897 38.4727 142.267 38.3024 142.66 38.2823C142.935 38.2439 143.209 38.2379 143.546 38.2197Z" fill="#F3F0F3"/>
<path d="M147.603 24.5219C147.613 25.1571 147.371 25.7703 146.93 26.2279C146.49 26.6855 145.886 26.9503 145.251 26.9646C144.919 26.9937 144.585 26.9538 144.269 26.8476C143.953 26.7414 143.662 26.5711 143.415 26.3474C143.168 26.1237 142.97 25.8514 142.833 25.5475C142.696 25.2437 142.624 24.9148 142.62 24.5816C142.616 24.2484 142.681 23.9179 142.811 23.6109C142.94 23.304 143.132 23.0271 143.374 22.7977C143.615 22.5682 143.902 22.3912 144.215 22.2776C144.529 22.164 144.862 22.1164 145.195 22.1376C145.829 22.1366 146.439 22.3866 146.89 22.8333C147.341 23.28 147.598 23.887 147.603 24.5219Z" fill="#F3F0F3"/>
<path d="M30.8125 48.4135C30.8125 45.8226 28.7121 43.7222 26.1211 43.7222H5.61955C3.0286 43.7222 0.928223 45.8226 0.928223 48.4135C0.928223 51.0044 3.0286 53.1048 5.61954 53.1048H26.1211C28.7121 53.1048 30.8125 51.0044 30.8125 48.4135Z" fill="#D5DAF3"/>
<path d="M30.8125 75.5455C30.8125 72.9545 28.7121 70.8541 26.1211 70.8541H5.61955C3.0286 70.8541 0.928223 72.9545 0.928223 75.5455C0.928223 78.1364 3.0286 80.2368 5.61954 80.2368H26.1211C28.7121 80.2368 30.8125 78.1364 30.8125 75.5455Z" fill="#D5DAF3"/>
<path d="M30.8125 102.677C30.8125 100.086 28.7121 97.9855 26.1211 97.9855H5.61955C3.0286 97.9855 0.928223 100.086 0.928223 102.677C0.928223 105.268 3.0286 107.368 5.61954 107.368H26.1211C28.7121 107.368 30.8125 105.268 30.8125 102.677Z" fill="#D5DAF3"/>
<path d="M30.8125 129.809C30.8125 127.218 28.7121 125.117 26.1211 125.117H5.61955C3.0286 125.117 0.928223 127.218 0.928223 129.809C0.928223 132.4 3.0286 134.5 5.61954 134.5H26.1211C28.7121 134.5 30.8125 132.4 30.8125 129.809Z" fill="#D5DAF3"/>
<path d="M30.8125 156.941C30.8125 154.35 28.7121 152.249 26.1211 152.249H5.61955C3.0286 152.249 0.928223 154.35 0.928223 156.941C0.928223 159.532 3.0286 161.632 5.61954 161.632H26.1211C28.7121 161.632 30.8125 159.532 30.8125 156.941Z" fill="#D5DAF3"/>
<path d="M34.7441 48.7583C34.7441 52.233 37.5609 55.0497 41.0355 55.0497C44.5102 55.0497 47.3269 52.233 47.3269 48.7583C47.3269 45.2836 44.5102 42.4669 41.0355 42.4669C37.5609 42.4669 34.7441 45.2836 34.7441 48.7583Z" fill="#BEC6ED"/>
<path d="M34.7441 103.022C34.7441 106.496 37.5609 109.313 41.0355 109.313C44.5102 109.313 47.3269 106.496 47.3269 103.022C47.3269 99.5471 44.5102 96.7304 41.0355 96.7304C37.5609 96.7304 34.7441 99.5471 34.7441 103.022Z" fill="#BEC6ED"/>
<path d="M34.7441 130.154C34.7441 133.628 37.5609 136.445 41.0355 136.445C44.5102 136.445 47.3269 133.628 47.3269 130.154C47.3269 126.679 44.5102 123.862 41.0355 123.862C37.5609 123.862 34.7441 126.679 34.7441 130.154Z" fill="#BEC6ED"/>
<path d="M34.7441 75.89C34.7441 79.3647 37.5609 82.1815 41.0355 82.1815C44.5102 82.1815 47.3269 79.3647 47.3269 75.89C47.3269 72.4154 44.5102 69.5986 41.0355 69.5986C37.5609 69.5986 34.7441 72.4154 34.7441 75.89Z" fill="#BEC6ED"/>
<path d="M34.7441 157.285C34.7441 160.76 37.5609 163.577 41.0355 163.577C44.5102 163.577 47.3269 160.76 47.3269 157.285C47.3269 153.811 44.5102 150.994 41.0355 150.994C37.5609 150.994 34.7441 153.811 34.7441 157.285Z" fill="#BEC6ED"/>
<path d="M148.385 104.005C148.385 129.956 127.347 150.994 101.396 150.994C75.4444 150.994 54.4067 129.956 54.4067 104.005C54.4067 78.0537 75.4444 57.016 101.396 57.016C127.347 57.016 148.385 78.0537 148.385 104.005Z" fill="#E2DEE2"/>
<path d="M73.4583 96.2395C71.6905 95.6783 70.4138 94.9838 69.6281 94.1561C68.8424 93.3143 68.4496 92.2901 68.4496 91.0835C68.4496 89.7647 68.9056 88.7265 69.8175 87.9689C70.7435 87.1972 72.0623 86.8114 73.7739 86.8114C75.0647 86.8114 76.2362 86.9587 77.2884 87.2534C77.6252 87.3516 77.8917 87.555 78.0881 87.8637C78.2986 88.1583 78.4038 88.488 78.4038 88.8528V89.4631C78.4038 89.7437 78.2846 89.9611 78.0461 90.1155C77.8075 90.2698 77.555 90.2979 77.2884 90.1996C76.0959 89.7787 74.9945 89.5683 73.9844 89.5683C72.6936 89.5683 72.0483 90.0734 72.0483 91.0835C72.0483 91.9393 72.6095 92.5496 73.7319 92.9144C75.668 93.5037 77.0078 94.1911 77.7514 94.9768C78.509 95.7625 78.8878 96.7937 78.8878 98.0704C78.8878 101.087 76.9868 102.595 73.1847 102.595C71.9781 102.595 70.8838 102.406 69.9017 102.027C69.565 101.901 69.2984 101.683 69.102 101.374C68.9196 101.052 68.8284 100.701 68.8284 100.322V99.6488C68.8284 99.3962 68.9407 99.2068 69.1651 99.0806C69.3896 98.9403 69.6141 98.9262 69.8386 99.0385C70.8627 99.5435 71.908 99.7961 72.9742 99.7961C73.7178 99.7961 74.279 99.6558 74.6578 99.3752C75.0507 99.0806 75.2471 98.6667 75.2471 98.1335C75.2471 97.6706 75.1138 97.2917 74.8472 96.9971C74.5807 96.7025 74.1177 96.45 73.4583 96.2395Z" fill="#C6C6C6"/>
<path d="M82.7318 102.385C82.4091 102.385 82.1285 102.265 81.89 102.027C81.6655 101.788 81.5533 101.508 81.5533 101.185V88.2214C81.5533 87.8987 81.6655 87.6181 81.89 87.3796C82.1285 87.1411 82.4091 87.0219 82.7318 87.0219H90.1817C90.5044 87.0219 90.778 87.1411 91.0024 87.3796C91.2409 87.6181 91.3602 87.8987 91.3602 88.2214V88.7055C91.3602 89.0281 91.2409 89.3087 91.0024 89.5472C90.778 89.7858 90.5044 89.905 90.1817 89.905H85.2993C85.187 89.905 85.1309 89.9611 85.1309 90.0734V92.8513C85.1309 92.9776 85.187 93.0407 85.2993 93.0407H89.7608C90.0835 93.0407 90.3571 93.1599 90.5815 93.3985C90.82 93.637 90.9393 93.9176 90.9393 94.2402V94.5559C90.9393 94.8786 90.82 95.1592 90.5815 95.3977C90.3571 95.6362 90.0835 95.7555 89.7608 95.7555H85.2993C85.187 95.7555 85.1309 95.8116 85.1309 95.9238V99.3331C85.1309 99.4453 85.187 99.5015 85.2993 99.5015H90.1817C90.5044 99.5015 90.778 99.6207 91.0024 99.8592C91.2409 100.098 91.3602 100.378 91.3602 100.701V101.185C91.3602 101.508 91.2409 101.788 91.0024 102.027C90.778 102.265 90.5044 102.385 90.1817 102.385H82.7318Z" fill="#C6C6C6"/>
<path d="M95.0304 89.9892C94.7077 89.9892 94.4271 89.8699 94.1886 89.6314C93.9501 89.3929 93.8308 89.1123 93.8308 88.7896V88.2214C93.8308 87.8987 93.9501 87.6181 94.1886 87.3796C94.4271 87.1411 94.7077 87.0219 95.0304 87.0219H104.416C104.739 87.0219 105.02 87.1411 105.258 87.3796C105.497 87.6181 105.616 87.8987 105.616 88.2214V88.7896C105.616 89.1123 105.497 89.3929 105.258 89.6314C105.02 89.8699 104.739 89.9892 104.416 89.9892H101.723C101.61 89.9892 101.554 90.0453 101.554 90.1575V101.185C101.554 101.508 101.435 101.788 101.197 102.027C100.958 102.265 100.677 102.385 100.355 102.385H99.092C98.7694 102.385 98.4888 102.265 98.2502 102.027C98.0117 101.788 97.8925 101.508 97.8925 101.185V90.1575C97.8925 90.0453 97.8364 89.9892 97.7241 89.9892H95.0304Z" fill="#C6C6C6"/>
<path d="M119.866 96.8077C119.866 100.666 117.901 102.595 113.973 102.595C110.045 102.595 108.08 100.666 108.08 96.8077V88.2214C108.08 87.8987 108.2 87.6181 108.438 87.3796C108.677 87.1411 108.957 87.0219 109.28 87.0219H110.501C110.823 87.0219 111.104 87.1411 111.342 87.3796C111.581 87.6181 111.7 87.8987 111.7 88.2214V97.0603C111.7 98.0143 111.883 98.6947 112.247 99.1016C112.612 99.5085 113.201 99.7119 114.015 99.7119C114.829 99.7119 115.418 99.5085 115.783 99.1016C116.148 98.6947 116.33 98.0143 116.33 97.0603V88.2214C116.33 87.8987 116.449 87.6181 116.688 87.3796C116.926 87.1411 117.207 87.0219 117.53 87.0219H118.666C118.989 87.0219 119.269 87.1411 119.508 87.3796C119.746 87.6181 119.866 87.8987 119.866 88.2214V96.8077Z" fill="#C6C6C6"/>
<path d="M126.377 89.8419V94.4296C126.377 94.5279 126.44 94.591 126.566 94.6191C127.043 94.6752 127.422 94.7032 127.702 94.7032C128.712 94.7032 129.491 94.4717 130.038 94.0088C130.6 93.5317 130.88 92.8723 130.88 92.0305C130.88 90.361 129.821 89.5262 127.702 89.5262C127.352 89.5262 126.966 89.5613 126.545 89.6314C126.433 89.6595 126.377 89.7296 126.377 89.8419ZM124.062 102.385C123.739 102.385 123.458 102.265 123.22 102.027C122.981 101.788 122.862 101.508 122.862 101.185V88.3267C122.862 87.9899 122.974 87.6883 123.199 87.4217C123.423 87.1552 123.704 87.0078 124.041 86.9798C125.233 86.8675 126.384 86.8114 127.492 86.8114C131.981 86.8114 134.226 88.481 134.226 91.8201C134.226 93.63 133.7 95.0049 132.648 95.9449C131.61 96.8708 130.08 97.3338 128.06 97.3338C127.527 97.3338 127.029 97.3128 126.566 97.2707C126.44 97.2707 126.377 97.3268 126.377 97.4391V101.185C126.377 101.508 126.257 101.788 126.019 102.027C125.78 102.265 125.5 102.385 125.177 102.385H124.062Z" fill="#C6C6C6"/>
<path d="M77.1614 127.529C74.8044 127.529 72.9174 126.835 71.5004 125.446C70.0833 124.043 69.3748 122.107 69.3748 119.638C69.3748 117.154 70.0693 115.218 71.4583 113.829C72.8472 112.44 74.7974 111.746 77.3087 111.746C78.347 111.746 79.3501 111.83 80.3182 111.998C80.6549 112.054 80.9285 112.223 81.1389 112.503C81.3634 112.77 81.4756 113.079 81.4756 113.429V113.998C81.4756 114.292 81.3564 114.531 81.1179 114.713C80.8793 114.896 80.6128 114.952 80.3182 114.881C79.4483 114.685 78.5855 114.587 77.7296 114.587C74.5869 114.587 73.0156 116.27 73.0156 119.638C73.0156 121.321 73.3874 122.584 74.131 123.426C74.8886 124.267 75.9689 124.688 77.3719 124.688C77.8068 124.688 78.2487 124.632 78.6977 124.52C78.824 124.492 78.8871 124.415 78.8871 124.289V120.858C78.8871 120.746 78.824 120.69 78.6977 120.69H76.7405C76.4178 120.69 76.1373 120.571 75.8987 120.332C75.6602 120.094 75.541 119.813 75.541 119.49V119.175C75.541 118.852 75.6602 118.571 75.8987 118.333C76.1373 118.094 76.4178 117.975 76.7405 117.975H81.0968C81.4195 117.975 81.6931 118.094 81.9176 118.333C82.1561 118.571 82.2753 118.852 82.2753 119.175V125.467C82.2753 125.832 82.1701 126.162 81.9596 126.456C81.7492 126.737 81.4756 126.926 81.1389 127.024C79.8762 127.361 78.5504 127.529 77.1614 127.529Z" fill="#C6C6C6"/>
<path d="M96.9403 121.742C96.9403 125.6 94.9761 127.529 91.0477 127.529C87.1194 127.529 85.1552 125.6 85.1552 121.742V113.156C85.1552 112.833 85.2744 112.553 85.5129 112.314C85.7514 112.076 86.032 111.956 86.3547 111.956H87.5753C87.898 111.956 88.1786 112.076 88.4171 112.314C88.6556 112.553 88.7749 112.833 88.7749 113.156V121.995C88.7749 122.949 88.9573 123.629 89.3221 124.036C89.6868 124.443 90.2761 124.646 91.0898 124.646C91.9036 124.646 92.4928 124.443 92.8576 124.036C93.2224 123.629 93.4047 122.949 93.4047 121.995V113.156C93.4047 112.833 93.524 112.553 93.7625 112.314C94.001 112.076 94.2816 111.956 94.6043 111.956H95.7407C96.0634 111.956 96.344 112.076 96.5825 112.314C96.821 112.553 96.9403 112.833 96.9403 113.156V121.742Z" fill="#C6C6C6"/>
<path d="M101.431 127.319C101.108 127.319 100.828 127.2 100.589 126.961C100.365 126.723 100.252 126.442 100.252 126.119V113.156C100.252 112.833 100.365 112.553 100.589 112.314C100.828 112.076 101.108 111.956 101.431 111.956H102.988C103.311 111.956 103.584 112.076 103.809 112.314C104.047 112.553 104.167 112.833 104.167 113.156V126.119C104.167 126.442 104.047 126.723 103.809 126.961C103.584 127.2 103.311 127.319 102.988 127.319H101.431Z" fill="#C6C6C6"/>
<path d="M111.178 114.86V124.415C111.178 124.541 111.241 124.618 111.368 124.646C111.648 124.702 111.985 124.73 112.378 124.73C113.795 124.73 114.84 124.317 115.513 123.489C116.201 122.661 116.545 121.307 116.545 119.427C116.545 117.744 116.201 116.509 115.513 115.723C114.826 114.938 113.781 114.545 112.378 114.545C111.985 114.545 111.648 114.573 111.368 114.629C111.241 114.657 111.178 114.734 111.178 114.86ZM108.863 127.361C108.526 127.333 108.246 127.193 108.021 126.94C107.797 126.674 107.685 126.365 107.685 126.014V113.261C107.685 112.91 107.797 112.609 108.021 112.356C108.246 112.09 108.526 111.942 108.863 111.914C109.957 111.802 111.038 111.746 112.104 111.746C114.615 111.746 116.552 112.412 117.912 113.745C119.273 115.078 119.954 116.972 119.954 119.427C119.954 122.093 119.273 124.113 117.912 125.488C116.552 126.849 114.615 127.529 112.104 127.529C111.038 127.529 109.957 127.473 108.863 127.361Z" fill="#C6C6C6"/>
<path d="M123.393 127.319C123.07 127.319 122.79 127.2 122.551 126.961C122.327 126.723 122.215 126.442 122.215 126.119V113.156C122.215 112.833 122.327 112.553 122.551 112.314C122.79 112.076 123.07 111.956 123.393 111.956H130.843C131.166 111.956 131.439 112.076 131.664 112.314C131.902 112.553 132.022 112.833 132.022 113.156V113.64C132.022 113.963 131.902 114.243 131.664 114.482C131.439 114.72 131.166 114.839 130.843 114.839H125.961C125.848 114.839 125.792 114.896 125.792 115.008V117.786C125.792 117.912 125.848 117.975 125.961 117.975H130.422C130.745 117.975 131.018 118.094 131.243 118.333C131.481 118.571 131.601 118.852 131.601 119.175V119.49C131.601 119.813 131.481 120.094 131.243 120.332C131.018 120.571 130.745 120.69 130.422 120.69H125.961C125.848 120.69 125.792 120.746 125.792 120.858V124.267C125.792 124.38 125.848 124.436 125.961 124.436H130.843C131.166 124.436 131.439 124.555 131.664 124.794C131.902 125.032 132.022 125.313 132.022 125.635V126.119C132.022 126.442 131.902 126.723 131.664 126.961C131.439 127.2 131.166 127.319 130.843 127.319H123.393Z" fill="#C6C6C6"/>
<path d="M73.1994 94.5915C71.4386 94.0325 70.167 93.3408 69.3844 92.5163C68.6018 91.6778 68.2105 90.6577 68.2105 89.4559C68.2105 88.1423 68.6647 87.1082 69.573 86.3536C70.4954 85.585 71.809 85.2007 73.5138 85.2007C74.7995 85.2007 75.9663 85.3474 77.0144 85.6409C77.3498 85.7387 77.6153 85.9413 77.811 86.2488C78.0206 86.5422 78.1254 86.8706 78.1254 87.234V87.8418C78.1254 88.1213 78.0066 88.3379 77.769 88.4917C77.5315 88.6454 77.2799 88.6733 77.0144 88.5755C75.8266 88.1563 74.7296 87.9466 73.7234 87.9466C72.4378 87.9466 71.795 88.4497 71.795 89.4559C71.795 90.3083 72.354 90.9162 73.4719 91.2796C75.4004 91.8665 76.7349 92.5512 77.4756 93.3338C78.2302 94.1164 78.6075 95.1435 78.6075 96.4152C78.6075 99.4197 76.714 100.922 72.9269 100.922C71.7251 100.922 70.6351 100.733 69.6569 100.356C69.3215 100.23 69.056 100.014 68.8603 99.7061C68.6787 99.3847 68.5878 99.0354 68.5878 98.6581V97.9873C68.5878 97.7357 68.6996 97.5471 68.9232 97.4213C69.1468 97.2816 69.3704 97.2676 69.594 97.3794C70.6141 97.8825 71.6552 98.134 72.7173 98.134C73.4579 98.134 74.0169 97.9943 74.3942 97.7148C74.7855 97.4213 74.9811 97.0091 74.9811 96.478C74.9811 96.0169 74.8484 95.6396 74.5829 95.3461C74.3174 95.0526 73.8562 94.8011 73.1994 94.5915Z" fill="#666666"/>
<path d="M82.4363 100.712C82.1149 100.712 81.8354 100.594 81.5978 100.356C81.3742 100.118 81.2624 99.8389 81.2624 99.5175V86.6051C81.2624 86.2837 81.3742 86.0042 81.5978 85.7666C81.8354 85.5291 82.1149 85.4103 82.4363 85.4103H89.8567C90.1781 85.4103 90.4506 85.5291 90.6742 85.7666C90.9118 86.0042 91.0306 86.2837 91.0306 86.6051V87.0872C91.0306 87.4086 90.9118 87.6881 90.6742 87.9257C90.4506 88.1633 90.1781 88.282 89.8567 88.282H84.9936C84.8818 88.282 84.8259 88.3379 84.8259 88.4497V91.2167C84.8259 91.3424 84.8818 91.4053 84.9936 91.4053H89.4375C89.7589 91.4053 90.0314 91.5241 90.255 91.7617C90.4925 91.9992 90.6113 92.2787 90.6113 92.6001V92.9146C90.6113 93.236 90.4925 93.5155 90.255 93.753C90.0314 93.9906 89.7589 94.1094 89.4375 94.1094H84.9936C84.8818 94.1094 84.8259 94.1653 84.8259 94.2771V97.6729C84.8259 97.7847 84.8818 97.8405 84.9936 97.8405H89.8567C90.1781 97.8405 90.4506 97.9593 90.6742 98.1969C90.9118 98.4345 91.0306 98.7139 91.0306 99.0354V99.5175C91.0306 99.8389 90.9118 100.118 90.6742 100.356C90.4506 100.594 90.1781 100.712 89.8567 100.712H82.4363Z" fill="#666666"/>
<path d="M94.6862 88.3659C94.3648 88.3659 94.0853 88.2471 93.8478 88.0095C93.6102 87.772 93.4914 87.4925 93.4914 87.1711V86.6051C93.4914 86.2837 93.6102 86.0042 93.8478 85.7666C94.0853 85.5291 94.3648 85.4103 94.6862 85.4103H104.035C104.357 85.4103 104.636 85.5291 104.874 85.7666C105.111 86.0042 105.23 86.2837 105.23 86.6051V87.1711C105.23 87.4925 105.111 87.772 104.874 88.0095C104.636 88.2471 104.357 88.3659 104.035 88.3659H101.352C101.24 88.3659 101.184 88.4218 101.184 88.5336V99.5175C101.184 99.8389 101.066 100.118 100.828 100.356C100.59 100.594 100.311 100.712 99.9895 100.712H98.7318C98.4104 100.712 98.1309 100.594 97.8934 100.356C97.6558 100.118 97.537 99.8389 97.537 99.5175V88.5336C97.537 88.4218 97.4811 88.3659 97.3693 88.3659H94.6862Z" fill="#666666"/>
<path d="M119.423 95.1575C119.423 99.0004 117.467 100.922 113.554 100.922C109.641 100.922 107.685 99.0004 107.685 95.1575V86.6051C107.685 86.2837 107.804 86.0042 108.041 85.7666C108.279 85.5291 108.558 85.4103 108.88 85.4103H110.095C110.417 85.4103 110.696 85.5291 110.934 85.7666C111.171 86.0042 111.29 86.2837 111.29 86.6051V95.409C111.29 96.3593 111.472 97.037 111.835 97.4423C112.198 97.8475 112.785 98.0502 113.596 98.0502C114.406 98.0502 114.993 97.8475 115.357 97.4423C115.72 97.037 115.902 96.3593 115.902 95.409V86.6051C115.902 86.2837 116.021 86.0042 116.258 85.7666C116.496 85.5291 116.775 85.4103 117.097 85.4103H118.228C118.55 85.4103 118.829 85.5291 119.067 85.7666C119.304 86.0042 119.423 86.2837 119.423 86.6051V95.1575Z" fill="#666666"/>
<path d="M125.908 88.2191V92.7888C125.908 92.8866 125.971 92.9495 126.097 92.9774C126.572 93.0333 126.95 93.0613 127.229 93.0613C128.235 93.0613 129.011 92.8307 129.556 92.3696C130.115 91.8944 130.394 91.2376 130.394 90.3992C130.394 88.7362 129.339 87.9047 127.229 87.9047C126.88 87.9047 126.495 87.9397 126.076 88.0095C125.964 88.0375 125.908 88.1074 125.908 88.2191ZM123.603 100.712C123.281 100.712 123.002 100.594 122.764 100.356C122.527 100.118 122.408 99.8389 122.408 99.5175V86.7099C122.408 86.3745 122.52 86.0741 122.743 85.8086C122.967 85.5431 123.246 85.3963 123.582 85.3684C124.77 85.2566 125.915 85.2007 127.019 85.2007C131.491 85.2007 133.727 86.8636 133.727 90.1895C133.727 91.9922 133.203 93.3617 132.155 94.298C131.121 95.2203 129.598 95.6815 127.585 95.6815C127.054 95.6815 126.558 95.6605 126.097 95.6186C125.971 95.6186 125.908 95.6745 125.908 95.7863V99.5175C125.908 99.8389 125.79 100.118 125.552 100.356C125.315 100.594 125.035 100.712 124.714 100.712H123.603Z" fill="#666666"/>
<path d="M76.8879 125.849C74.5402 125.849 72.6607 125.158 71.2492 123.774C69.8378 122.377 69.1321 120.448 69.1321 117.989C69.1321 115.515 69.8238 113.587 71.2073 112.203C72.5908 110.82 74.5332 110.128 77.0347 110.128C78.0688 110.128 79.0679 110.212 80.0322 110.38C80.3676 110.436 80.6401 110.603 80.8497 110.883C81.0733 111.148 81.1851 111.456 81.1851 111.805V112.371C81.1851 112.664 81.0663 112.902 80.8287 113.084C80.5911 113.265 80.3256 113.321 80.0322 113.251C79.1657 113.056 78.3063 112.958 77.4539 112.958C74.3236 112.958 72.7585 114.635 72.7585 117.989C72.7585 119.666 73.1288 120.923 73.8694 121.762C74.6241 122.6 75.7001 123.02 77.0975 123.02C77.5307 123.02 77.9709 122.964 78.4181 122.852C78.5439 122.824 78.6068 122.747 78.6068 122.621V119.205C78.6068 119.093 78.5439 119.037 78.4181 119.037H76.4687C76.1473 119.037 75.8678 118.918 75.6302 118.68C75.3927 118.443 75.2739 118.163 75.2739 117.842V117.528C75.2739 117.206 75.3927 116.927 75.6302 116.689C75.8678 116.452 76.1473 116.333 76.4687 116.333H80.8077C81.1292 116.333 81.4017 116.452 81.6253 116.689C81.8628 116.927 81.9816 117.206 81.9816 117.528V123.795C81.9816 124.158 81.8768 124.487 81.6672 124.78C81.4576 125.06 81.1851 125.248 80.8497 125.346C79.592 125.682 78.2714 125.849 76.8879 125.849Z" fill="#666666"/>
<path d="M96.5886 120.085C96.5886 123.928 94.6322 125.849 90.7193 125.849C86.8065 125.849 84.8501 123.928 84.8501 120.085V111.533C84.8501 111.211 84.9688 110.932 85.2064 110.694C85.444 110.457 85.7235 110.338 86.0449 110.338H87.2607C87.5821 110.338 87.8616 110.457 88.0991 110.694C88.3367 110.932 88.4555 111.211 88.4555 111.533V120.336C88.4555 121.287 88.6371 121.964 89.0005 122.37C89.3638 122.775 89.9507 122.978 90.7613 122.978C91.5718 122.978 92.1587 122.775 92.522 122.37C92.8854 121.964 93.067 121.287 93.067 120.336V111.533C93.067 111.211 93.1858 110.932 93.4234 110.694C93.6609 110.457 93.9404 110.338 94.2618 110.338H95.3938C95.7152 110.338 95.9947 110.457 96.2322 110.694C96.4698 110.932 96.5886 111.211 96.5886 111.533V120.085Z" fill="#666666"/>
<path d="M101.061 125.64C100.74 125.64 100.461 125.521 100.223 125.283C99.9994 125.046 99.8876 124.766 99.8876 124.445V111.533C99.8876 111.211 99.9994 110.932 100.223 110.694C100.461 110.457 100.74 110.338 101.061 110.338H102.613C102.934 110.338 103.207 110.457 103.43 110.694C103.668 110.932 103.786 111.211 103.786 111.533V124.445C103.786 124.766 103.668 125.046 103.43 125.283C103.207 125.521 102.934 125.64 102.613 125.64H101.061Z" fill="#666666"/>
<path d="M110.77 113.23V122.747C110.77 122.873 110.833 122.95 110.959 122.978C111.238 123.034 111.574 123.061 111.965 123.061C113.376 123.061 114.417 122.649 115.088 121.825C115.773 121 116.115 119.652 116.115 117.779C116.115 116.102 115.773 114.872 115.088 114.09C114.403 113.307 113.362 112.916 111.965 112.916C111.574 112.916 111.238 112.944 110.959 113C110.833 113.028 110.77 113.105 110.77 113.23ZM108.464 125.682C108.129 125.654 107.849 125.514 107.626 125.262C107.402 124.997 107.29 124.689 107.29 124.34V111.637C107.29 111.288 107.402 110.988 107.626 110.736C107.849 110.471 108.129 110.324 108.464 110.296C109.554 110.184 110.63 110.128 111.692 110.128C114.194 110.128 116.122 110.792 117.478 112.119C118.833 113.447 119.511 115.334 119.511 117.779C119.511 120.434 118.833 122.447 117.478 123.816C116.122 125.172 114.194 125.849 111.692 125.849C110.63 125.849 109.554 125.793 108.464 125.682Z" fill="#666666"/>
<path d="M122.937 125.64C122.615 125.64 122.336 125.521 122.098 125.283C121.875 125.046 121.763 124.766 121.763 124.445V111.533C121.763 111.211 121.875 110.932 122.098 110.694C122.336 110.457 122.615 110.338 122.937 110.338H130.357C130.679 110.338 130.951 110.457 131.175 110.694C131.412 110.932 131.531 111.211 131.531 111.533V112.015C131.531 112.336 131.412 112.616 131.175 112.853C130.951 113.091 130.679 113.209 130.357 113.209H125.494C125.382 113.209 125.327 113.265 125.327 113.377V116.144C125.327 116.27 125.382 116.333 125.494 116.333H129.938C130.259 116.333 130.532 116.452 130.756 116.689C130.993 116.927 131.112 117.206 131.112 117.528V117.842C131.112 118.163 130.993 118.443 130.756 118.68C130.532 118.918 130.259 119.037 129.938 119.037H125.494C125.382 119.037 125.327 119.093 125.327 119.205V122.6C125.327 122.712 125.382 122.768 125.494 122.768H130.357C130.679 122.768 130.951 122.887 131.175 123.124C131.412 123.362 131.531 123.641 131.531 123.963V124.445C131.531 124.766 131.412 125.046 131.175 125.283C130.951 125.521 130.679 125.64 130.357 125.64H122.937Z" fill="#666666"/>
</svg>
