<svg width="144" height="40" viewBox="0 0 144 40" fill="none" xmlns="http://www.w3.org/2000/svg">
<path d="M0.968262 32.284V8.05275H10.2443C11.9954 8.05275 13.4507 8.32883 14.6102 8.88097C15.7775 9.42523 16.6491 10.1706 17.225 11.1172C17.8086 12.0637 18.1005 13.1364 18.1005 14.3354C18.1005 15.3213 17.9112 16.1653 17.5326 16.8673C17.154 17.5615 16.6452 18.1254 16.0063 18.5593C15.3674 18.9931 14.6535 19.3047 13.8648 19.494V19.7306C14.7245 19.7779 15.5488 20.0422 16.3376 20.5233C17.1342 20.9966 17.785 21.667 18.2898 22.5347C18.7946 23.4023 19.047 24.4514 19.047 25.6819C19.047 26.9361 18.7433 28.064 18.136 29.0658C17.5286 30.0596 16.6136 30.8445 15.391 31.4203C14.1684 31.9961 12.6303 32.284 10.7767 32.284H0.968262ZM5.3578 28.6162H10.0786C11.672 28.6162 12.8196 28.3125 13.5216 27.7051C14.2315 27.0899 14.5865 26.3011 14.5865 25.3388C14.5865 24.621 14.409 23.9742 14.0541 23.3984C13.6991 22.8147 13.1943 22.3572 12.5396 22.0259C11.8849 21.6868 11.104 21.5172 10.1969 21.5172H5.3578V28.6162ZM5.3578 18.3581H9.70002C10.4572 18.3581 11.1395 18.2201 11.7469 17.944C12.3543 17.6601 12.8315 17.2617 13.1785 16.749C13.5335 16.2284 13.7109 15.6132 13.7109 14.9033C13.7109 13.9646 13.3797 13.1916 12.7171 12.5843C12.0624 11.9769 11.0883 11.6732 9.79467 11.6732H5.3578V18.3581Z" fill="black"/>
<path d="M34.2596 24.6407V14.1106H38.5426V32.284H34.3897V29.0539H34.2004C33.7902 30.0715 33.1158 30.9036 32.1772 31.5504C31.2464 32.1972 30.0988 32.5206 28.7342 32.5206C27.5431 32.5206 26.4901 32.2564 25.5751 31.7279C24.668 31.1915 23.9581 30.4146 23.4454 29.3971C22.9327 28.3716 22.6764 27.1333 22.6764 25.6819V14.1106H26.9594V25.0193C26.9594 26.171 27.275 27.0859 27.906 27.7643C28.537 28.4426 29.3652 28.7818 30.3906 28.7818C31.0216 28.7818 31.6329 28.628 32.2245 28.3204C32.8161 28.0127 33.3012 27.5553 33.6798 26.9479C34.0663 26.3327 34.2596 25.5636 34.2596 24.6407Z" fill="black"/>
<path d="M45.6091 39.099C45.0254 39.099 44.4851 39.0517 43.9881 38.957C43.4991 38.8703 43.1087 38.7677 42.8168 38.6494L43.8107 35.3129C44.4338 35.4943 44.9899 35.5811 45.4789 35.5732C45.968 35.5653 46.3979 35.4115 46.7686 35.1117C47.1472 34.8199 47.4666 34.3309 47.7269 33.6446L48.0937 32.6626L41.5035 14.1106H46.0469L50.2353 27.8353H50.4246L54.6248 14.1106H59.18L51.9035 34.4847C51.5643 35.447 51.1147 36.2712 50.5547 36.9575C49.9947 37.6516 49.3084 38.1801 48.496 38.5429C47.6914 38.9136 46.7291 39.099 45.6091 39.099Z" fill="black"/>
<path d="M69.8107 8.05275H74.1648V25.0903C74.1569 26.6521 73.8256 27.997 73.1709 29.1249C72.5162 30.245 71.6012 31.1087 70.426 31.7161C69.2586 32.3155 67.8979 32.6153 66.344 32.6153C64.9242 32.6153 63.6464 32.3629 62.5106 31.858C61.3826 31.3453 60.4874 30.5881 59.8248 29.5864C59.1622 28.5846 58.8309 27.3383 58.8309 25.8476H63.1968C63.2047 26.5022 63.3467 27.0662 63.6228 27.5395C63.9067 28.0127 64.2972 28.3756 64.7941 28.628C65.291 28.8804 65.8629 29.0066 66.5097 29.0066C67.2117 29.0066 67.8072 28.8607 68.2963 28.5688C68.7853 28.2691 69.156 27.8274 69.4084 27.2437C69.6687 26.66 69.8028 25.9422 69.8107 25.0903V8.05275Z" fill="black"/>
<path d="M83.9673 32.6508C82.8157 32.6508 81.7784 32.4457 80.8556 32.0355C79.9406 31.6175 79.2149 31.0022 78.6785 30.1898C78.1501 29.3773 77.8858 28.3756 77.8858 27.1845C77.8858 26.1591 78.0751 25.3112 78.4537 24.6407C78.8324 23.9703 79.349 23.4339 80.0037 23.0316C80.6584 22.6293 81.3959 22.3257 82.2162 22.1206C83.0444 21.9076 83.9002 21.7538 84.7837 21.6592C85.8485 21.5487 86.7122 21.4501 87.3748 21.3634C88.0374 21.2687 88.5185 21.1267 88.8183 20.9374C89.1259 20.7402 89.2797 20.4365 89.2797 20.0264V19.9554C89.2797 19.0641 89.0155 18.3739 88.487 17.8849C87.9585 17.3958 87.1973 17.1513 86.2035 17.1513C85.1544 17.1513 84.3222 17.38 83.707 17.8375C83.0996 18.295 82.6895 18.8353 82.4765 19.4585L78.4774 18.8905C78.7929 17.7863 79.3135 16.8634 80.0392 16.1219C80.7649 15.3726 81.6522 14.8126 82.7013 14.4418C83.7504 14.0632 84.9099 13.8739 86.1798 13.8739C87.0554 13.8739 87.927 13.9765 88.7946 14.1815C89.6623 14.3866 90.455 14.7258 91.1728 15.1991C91.8906 15.6644 92.4664 16.2994 92.9002 17.104C93.3419 17.9085 93.5628 18.9142 93.5628 20.121V32.284H89.4454V29.7875H89.3034C89.0431 30.2923 88.6763 30.7656 88.203 31.2073C87.7376 31.6411 87.15 31.9921 86.4401 32.2603C85.7381 32.5206 84.9138 32.6508 83.9673 32.6508ZM85.0795 29.5035C85.9392 29.5035 86.6846 29.334 87.3157 28.9948C87.9467 28.6477 88.4318 28.1902 88.7709 27.6223C89.118 27.0544 89.2915 26.4352 89.2915 25.7647V23.6232C89.1574 23.7336 88.9287 23.8362 88.6053 23.9308C88.2898 24.0255 87.9348 24.1083 87.5405 24.1793C87.1461 24.2503 86.7556 24.3134 86.3691 24.3686C85.9826 24.4238 85.6474 24.4711 85.3634 24.5106C84.7245 24.5973 84.1526 24.7393 83.6478 24.9365C83.143 25.1337 82.7447 25.4098 82.4528 25.7647C82.161 26.1118 82.0151 26.5614 82.0151 27.1135C82.0151 27.9023 82.303 28.4978 82.8788 28.9001C83.4546 29.3024 84.1881 29.5035 85.0795 29.5035Z" fill="black"/>
<path d="M97.8695 32.284V14.1106H102.022V17.1395H102.212C102.543 16.0904 103.111 15.2819 103.915 14.714C104.728 14.1382 105.655 13.8503 106.696 13.8503C106.933 13.8503 107.197 13.8621 107.489 13.8858C107.788 13.9015 108.037 13.9291 108.234 13.9686V17.9085C108.053 17.8454 107.765 17.7902 107.37 17.7429C106.984 17.6877 106.609 17.6601 106.246 17.6601C105.465 17.6601 104.763 17.8296 104.14 18.1688C103.525 18.5001 103.04 18.9615 102.685 19.5531C102.33 20.1447 102.153 20.827 102.153 21.6V32.284H97.8695Z" fill="black"/>
<path d="M118.377 32.6389C116.555 32.6389 114.981 32.2603 113.656 31.5031C112.339 30.738 111.325 29.6573 110.615 28.2612C109.905 26.8572 109.55 25.2047 109.55 23.3038C109.55 21.4344 109.905 19.7937 110.615 18.3818C111.333 16.962 112.335 15.8577 113.62 15.0689C114.906 14.2723 116.417 13.8739 118.152 13.8739C119.272 13.8739 120.329 14.0553 121.323 14.4182C122.325 14.7731 123.208 15.3253 123.973 16.0746C124.746 16.824 125.353 17.7784 125.795 18.9379C126.237 20.0895 126.458 21.462 126.458 23.0553V24.3686H111.562V21.4817H122.352C122.344 20.6614 122.167 19.9317 121.82 19.2928C121.473 18.646 120.988 18.1373 120.364 17.7665C119.749 17.3958 119.031 17.2105 118.211 17.2105C117.336 17.2105 116.566 17.4234 115.904 17.8494C115.241 18.2674 114.725 18.8196 114.354 19.5058C113.991 20.1841 113.806 20.9295 113.798 21.742V24.2621C113.798 25.3191 113.991 26.2262 114.378 26.9834C114.764 27.7327 115.304 28.3085 115.999 28.7108C116.693 29.1052 117.505 29.3024 118.436 29.3024C119.059 29.3024 119.623 29.2156 120.128 29.0421C120.633 28.8607 121.07 28.5964 121.441 28.2494C121.812 27.9023 122.092 27.4724 122.281 26.9597L126.28 27.4093C126.028 28.4663 125.547 29.3892 124.837 30.1779C124.135 30.9588 123.236 31.5662 122.139 32C121.043 32.426 119.789 32.6389 118.377 32.6389Z" fill="black"/>
<path d="M132.418 0.76782V10.9998H130.769L125.948 4.03026H125.863V10.9998H124.009V0.76782H125.668L130.484 7.74235H130.574V0.76782H132.418Z" fill="black"/>
<path d="M141.292 4.03526C141.209 3.76547 141.094 3.52399 140.947 3.31083C140.804 3.09433 140.631 2.90947 140.428 2.75626C140.228 2.60305 139.998 2.48814 139.738 2.41153C139.478 2.33159 139.195 2.29163 138.889 2.29163C138.339 2.29163 137.85 2.42985 137.42 2.7063C136.99 2.98275 136.652 3.3891 136.406 3.92534C136.163 4.45826 136.041 5.10775 136.041 5.87382C136.041 6.64654 136.163 7.30103 136.406 7.83728C136.649 8.37352 136.987 8.78154 137.42 9.06132C137.853 9.33777 138.356 9.47599 138.929 9.47599C139.448 9.47599 139.898 9.37607 140.278 9.17623C140.661 8.97638 140.956 8.69327 141.162 8.32689C141.369 7.95718 141.472 7.52419 141.472 7.02791L141.892 7.09286H139.114V5.644H143.266V6.87303C143.266 7.74901 143.079 8.50675 142.706 9.14625C142.333 9.78575 141.82 10.2787 141.167 10.6251C140.514 10.9682 139.765 11.1397 138.919 11.1397C137.976 11.1397 137.149 10.9282 136.436 10.5052C135.726 10.0789 135.172 9.47433 134.772 8.69161C134.376 7.90556 134.178 6.97295 134.178 5.8938C134.178 5.06778 134.294 4.33003 134.527 3.68054C134.764 3.03105 135.094 2.47981 135.517 2.02683C135.94 1.57052 136.436 1.22413 137.005 0.987648C137.575 0.747836 138.194 0.62793 138.864 0.62793C139.43 0.62793 139.958 0.711198 140.448 0.877734C140.937 1.04094 141.372 1.27409 141.752 1.57719C142.135 1.88028 142.449 2.24 142.696 2.65634C142.942 3.07268 143.104 3.53232 143.181 4.03526H141.292Z" fill="black"/>
</svg>
